<svg width="154" height="154" viewBox="0 0 154 154" fill="none" xmlns="http://www.w3.org/2000/svg">
<path fill-rule="evenodd" clip-rule="evenodd" d="M109.969 2.42628C112.329 0.0585705 115.884 -0.651015 118.971 0.629428L142.377 10.3344C146.569 12.0727 148.57 16.8707 146.855 21.0726L137.306 44.4717C136.045 47.5632 133.043 49.5893 129.704 49.6042C126.365 49.6191 123.346 47.6198 122.057 44.5396L118.278 35.512L23.263 76.1223C19.0733 77.913 14.2252 75.9683 12.4345 71.7785C10.6438 67.5888 12.5885 62.7408 16.7783 60.95L111.908 20.2908L108.202 11.4355C106.911 8.35176 107.609 4.794 109.969 2.42628ZM140.25 60.2748C143.167 60.2748 145.965 61.4337 148.028 63.4966C150.09 65.5596 151.25 68.3574 151.25 71.2748V148.275C151.25 151.313 148.787 153.775 145.75 153.775H118.25C115.213 153.775 112.75 151.313 112.75 148.275V71.2748C112.75 68.3574 113.909 65.5596 115.972 63.4966C118.034 61.4337 120.833 60.2748 123.75 60.2748H140.25ZM93.0281 79.9966C90.9651 77.9337 88.1673 76.7748 85.2499 76.7748H68.7499C65.8325 76.7748 63.0346 77.9337 60.9717 79.9966C58.9088 82.0596 57.7499 84.8574 57.7499 87.7748V148.275C57.7499 151.313 60.2123 153.775 63.2499 153.775H90.7499C93.7874 153.775 96.2499 151.313 96.2499 148.275V87.7748C96.2499 84.8574 95.0909 82.0596 93.0281 79.9966ZM30.2499 93.2748C33.1673 93.2748 35.9651 94.4337 38.0281 96.4966C40.0909 98.5596 41.2499 101.357 41.2499 104.275V148.275C41.2499 151.313 38.7874 153.775 35.7499 153.775H8.24988C5.21232 153.775 2.74988 151.313 2.74988 148.275V104.275C2.74988 101.357 3.90879 98.5596 5.9717 96.4966C8.03461 94.4337 10.8325 93.2748 13.7499 93.2748H30.2499Z" fill="#292D32"/>
</svg>
