<svg width="48" height="48" viewBox="0 0 48 48" fill="none" xmlns="http://www.w3.org/2000/svg">
<g clip-path="url(#clip0_83_502)">
<path fill-rule="evenodd" clip-rule="evenodd" d="M12 0C13.8935 0 15.4286 1.53502 15.4286 3.42857V6.85714H32.5717V3.42857C32.5717 1.53502 34.1068 0 36.0003 0C37.8939 0 39.4289 1.53502 39.4289 3.42857V6.85714H42.8571C45.6974 6.85714 48 9.15967 48 12V42.8571C48 45.6974 45.6974 48 42.8571 48H5.14286C2.30254 48 0 45.6974 0 42.8571V12C0 9.15967 2.30254 6.85714 5.14286 6.85714H8.57143V3.42857C8.57143 1.53502 10.1065 0 12 0ZM11.2667 28.0505C11.2667 26.6303 12.418 25.4791 13.8382 25.4791H25.4727V21.5054C25.4727 20.6387 25.9948 19.8573 26.7955 19.5256C27.5962 19.194 28.5179 19.3773 29.1308 19.9902L35.6763 26.5358C36.5133 27.3727 36.5133 28.7294 35.6763 29.5663L29.1308 36.1118C28.5179 36.7248 27.5962 36.9082 26.7955 36.5763C25.9948 36.2448 25.4727 35.4634 25.4727 34.5967V30.6219H13.8382C12.418 30.6219 11.2667 29.4707 11.2667 28.0505Z" fill="black"/>
</g>
<defs>
<clipPath id="clip0_83_502">
<rect width="48" height="48" fill="white"/>
</clipPath>
</defs>
</svg>
