<svg width="60" height="60" viewBox="0 0 60 60" fill="none" xmlns="http://www.w3.org/2000/svg">
<path d="M5 33.7488C28.75 20.0007 35 43.7508 55 33.749M36.2504 23.7508C33.751 31.2508 28.7488 47.5008 38.7505 53.7508M27.5 21.25C25 35 22.5 41.25 15 56.25M55 22.5C36.25 26.25 21.034 20.9396 10 10M30 11.2499C30.0001 14.0113 32.2387 16.2499 35.0001 16.25C37.7615 16.2501 40.0001 14.0115 40 11.2501C39.9999 8.48868 37.7613 6.25006 34.9999 6.25C32.2385 6.24994 29.9999 8.48848 30 11.2499Z" stroke="#090909" stroke-width="1.5" stroke-linecap="round" stroke-linejoin="round"/>
</svg>
