<svg width="76" height="92" viewBox="0 0 76 92" fill="none" xmlns="http://www.w3.org/2000/svg">
<path d="M9.00008 91.8333C6.70841 91.8333 4.74661 91.0174 3.11466 89.3854C1.48272 87.7535 0.666748 85.7917 0.666748 83.5V8.49999C0.666748 6.20832 1.48272 4.24652 3.11466 2.61457C4.74661 0.982629 6.70841 0.166656 9.00008 0.166656H50.6667C52.9584 0.166656 54.9202 0.982629 56.5522 2.61457C58.1841 4.24652 59.0001 6.20832 59.0001 8.49999V25.1667H50.6667V21H9.00008V71H50.6667V66.8333H59.0001V83.5C59.0001 85.7917 58.1841 87.7535 56.5522 89.3854C54.9202 91.0174 52.9584 91.8333 50.6667 91.8333H9.00008ZM9.00008 79.3333V83.5H50.6667V79.3333H9.00008ZM46.2917 62.6667L28.5834 44.9583L34.4167 39.125L46.2917 51L69.8334 27.4583L75.6667 33.2917L46.2917 62.6667ZM9.00008 12.6667H50.6667V8.49999H9.00008V12.6667Z" fill="#1D1B20"/>
</svg>
