<svg width="154" height="154" viewBox="0 0 154 154" fill="none" xmlns="http://www.w3.org/2000/svg">
<path d="M108.827 39.591C121.66 48.5101 130.515 62.691 132.312 79.0535M22.3941 79.3743C24.0624 63.076 32.7891 48.8951 45.4941 39.9118M52.5524 134.365C59.9957 138.151 68.4658 140.268 77.3849 140.268C85.9832 140.268 94.0682 138.343 101.319 134.814M95.2232 31.5701C95.2232 41.422 87.2368 49.4085 77.3849 49.4085C67.5331 49.4085 59.5466 41.422 59.5466 31.5701C59.5466 21.7183 67.5331 13.7318 77.3849 13.7318C87.2368 13.7318 95.2232 21.7183 95.2232 31.5701ZM48.8308 109.982C48.8308 119.834 40.8443 127.82 30.9924 127.82C21.1406 127.82 13.1541 119.834 13.1541 109.982C13.1541 100.13 21.1406 92.1435 30.9924 92.1435C40.8443 92.1435 48.8308 100.13 48.8308 109.982ZM140.846 109.982C140.846 119.834 132.859 127.82 123.007 127.82C113.156 127.82 105.169 119.834 105.169 109.982C105.169 100.13 113.156 92.1435 123.007 92.1435C132.859 92.1435 140.846 100.13 140.846 109.982Z" stroke="#292D32" stroke-width="9.625" stroke-linecap="round" stroke-linejoin="round"/>
</svg>
